<svg viewBox="0 0 1414 139" fill="none" xmlns="http://www.w3.org/2000/svg">
<path d="M147.898 136H104.832C105.223 119.984 105.418 103.676 105.418 87.0742C105.418 70.4727 104.604 51.625 102.977 30.5312C105.19 25.9089 108.283 18.8776 112.254 9.4375C112.71 8.39583 113.882 7.09375 115.77 5.53125C117.658 3.90365 119.318 3.08984 120.75 3.08984H150.633C150.177 11.6836 149.949 21.2214 149.949 31.7031C149.949 64.5156 152.13 97.1328 156.492 129.555C156.492 130.401 155.451 131.703 153.367 133.461C151.284 135.154 149.461 136 147.898 136ZM80.9062 130.922C80.4505 131.898 79.4414 133.005 77.8789 134.242C76.3164 135.414 75.0794 136 74.168 136H58.6406C55.9062 119.789 52.3581 102.732 47.9961 84.8281C43.6341 66.9245 39.3047 52.1784 35.0078 40.5898C35.2682 39.0924 36.1146 34.5352 37.5469 26.918C39.0443 19.2357 40.0859 13.4089 40.6719 9.4375C40.8672 8.52604 41.974 7.25651 43.9922 5.62891C46.0104 3.9362 47.7357 3.08984 49.168 3.08984H77.5859C82.0781 29.1315 85.7891 46.7422 88.7188 55.9219C91.7135 65.0365 94.4479 72.3281 96.9219 77.7969C90.6719 96.4818 85.3333 114.19 80.9062 130.922ZM32.8594 65.3945C33.1849 81.6706 33.7708 94.1055 34.6172 102.699C35.5286 111.293 37.4492 120.245 40.3789 129.555C40.3789 130.401 39.3047 131.703 37.1562 133.461C35.0729 135.154 33.25 136 31.6875 136H0.535156C6.98047 120.635 12.026 108.201 15.6719 98.6953C19.3177 89.125 22.2148 80.1406 24.3633 71.7422C24.3633 70.8958 25.4049 69.6263 27.4883 67.9336C29.5716 66.2409 31.362 65.3945 32.8594 65.3945ZM232.719 68.4219C248.214 70.1146 259.542 72.0352 266.703 74.1836C266.703 77.7643 265.954 80.401 264.457 82.0938C253.78 82.7448 242.322 84.4375 230.082 87.1719C228.324 100.844 226.859 114.971 225.688 129.555C225.688 130.401 224.646 131.703 222.562 133.461C220.479 135.154 218.689 136 217.191 136H171.684C180.408 104.424 186.853 62.237 191.02 9.4375C191.02 8.59115 192.094 7.32161 194.242 5.62891C196.391 3.9362 198.214 3.08984 199.711 3.08984H245.023C240.076 24.5742 235.974 46.3516 232.719 68.4219ZM274.711 62.2695C273.148 52.4388 270.186 42.6406 265.824 32.875C261.462 23.1094 257.068 15.7852 252.641 10.9023C252.966 7.77734 253.91 5.17318 255.473 3.08984H290.922C290.466 9.40495 289.49 17.901 287.992 28.5781C286.495 39.1901 284.9 48.2396 283.207 55.7266C282.947 56.8333 281.84 58.2005 279.887 59.8281C277.934 61.4557 276.208 62.2695 274.711 62.2695ZM270.219 95.8633C270.935 94.9518 272.562 93.6497 275.102 91.957C277.641 90.2643 279.626 89.418 281.059 89.418C278.845 108.754 276.762 121.938 274.809 128.969C274.223 130.271 273.051 131.768 271.293 133.461C269.535 135.154 268.103 136 266.996 136H231.156C247.172 125.258 260.193 111.879 270.219 95.8633ZM352.793 129.555C352.793 130.401 351.751 131.703 349.668 133.461C347.585 135.154 345.762 136 344.199 136H299.863C308.783 100.062 315.13 58.2331 318.906 10.5117C318.906 9.73047 319.948 8.52604 322.031 6.89844C324.115 5.20573 325.905 4.32682 327.402 4.26172C346.934 2.63411 361.842 1.82031 372.129 1.82031C362.754 42.3151 356.309 84.8932 352.793 129.555ZM423.691 92.0547L422.324 111.684C422.324 115.264 422.975 118.129 424.277 120.277C425.579 122.426 427.988 123.76 431.504 124.281C430.853 128.383 429.779 131.736 428.281 134.34C416.628 137.074 406.699 138.441 398.496 138.441C390.358 138.441 384.043 137.335 379.551 135.121C375.124 132.842 372.91 129.327 372.91 124.574C372.91 119.822 373.626 113.344 375.059 105.141C376.556 96.8724 377.305 91.013 377.305 87.5625C377.305 84.0469 376.523 81.1172 374.961 78.7734C373.398 76.4297 371.283 75.1276 368.613 74.8672C368.939 71.9375 370.046 69.3333 371.934 67.0547C377.402 64.1901 381.667 59.7305 384.727 53.6758C387.786 47.6211 389.316 41.0781 389.316 34.0469C389.316 23.5 386.159 14.9388 379.844 8.36328C379.844 7.38672 380.885 6.01953 382.969 4.26172C385.052 2.50391 386.842 1.625 388.34 1.625C399.993 1.625 410.085 4.03385 418.613 8.85156C422.91 11.3255 426.328 14.7109 428.867 19.0078C431.406 23.3047 432.676 28.2526 432.676 33.8516C432.676 43.0312 428.477 50.8438 420.078 57.2891C411.68 63.7344 400.449 67.4453 386.387 68.4219L395.176 69.2031C403.77 70.0495 410.671 72.3281 415.879 76.0391C421.087 79.6849 423.691 85.0234 423.691 92.0547ZM557.145 129.555C557.145 130.401 556.103 131.703 554.02 133.461C551.936 135.154 550.146 136 548.648 136H523.453C516.096 122.654 506.266 107.452 493.961 90.3945C481.721 73.3372 470.556 59.0469 460.465 47.5234C461.311 40.5573 462.613 27.862 464.371 9.4375C464.566 8.52604 465.673 7.25651 467.691 5.62891C469.775 3.9362 471.5 3.08984 472.867 3.08984H498.355C507.014 18.3242 516.259 32.7448 526.09 46.3516C535.986 59.9583 547.509 74.8021 560.66 90.8828C558.967 106.508 557.796 119.398 557.145 129.555ZM555.484 73.793C552.359 57.7122 549.495 45.082 546.891 35.9023C544.352 26.6576 540.901 17.8359 536.539 9.4375C536.539 8.59115 537.581 7.32161 539.664 5.62891C541.812 3.9362 543.668 3.08984 545.23 3.08984H576.285C571.923 21.9049 567.854 43.2917 564.078 67.25C564.078 68.1615 563.036 69.4961 560.953 71.2539C558.87 72.9466 557.047 73.793 555.484 73.793ZM465.738 66.5664C467.431 80.2383 469.742 91.6966 472.672 100.941C475.602 110.121 479.671 119.659 484.879 129.555C484.879 130.401 483.837 131.703 481.754 133.461C479.671 135.154 477.848 136 476.285 136H445.23C449.592 117.055 453.564 96.0586 457.145 73.0117C457.145 72.1654 458.186 70.8958 460.27 69.2031C462.418 67.4453 464.241 66.5664 465.738 66.5664ZM784.5 136H741.434C741.824 119.984 742.02 103.676 742.02 87.0742C742.02 70.4727 741.206 51.625 739.578 30.5312C741.792 25.9089 744.884 18.8776 748.855 9.4375C749.311 8.39583 750.483 7.09375 752.371 5.53125C754.259 3.90365 755.919 3.08984 757.352 3.08984H787.234C786.779 11.6836 786.551 21.2214 786.551 31.7031C786.551 64.5156 788.732 97.1328 793.094 129.555C793.094 130.401 792.052 131.703 789.969 133.461C787.885 135.154 786.062 136 784.5 136ZM717.508 130.922C717.052 131.898 716.043 133.005 714.48 134.242C712.918 135.414 711.681 136 710.77 136H695.242C692.508 119.789 688.96 102.732 684.598 84.8281C680.236 66.9245 675.906 52.1784 671.609 40.5898C671.87 39.0924 672.716 34.5352 674.148 26.918C675.646 19.2357 676.688 13.4089 677.273 9.4375C677.469 8.52604 678.576 7.25651 680.594 5.62891C682.612 3.9362 684.337 3.08984 685.77 3.08984H714.188C718.68 29.1315 722.391 46.7422 725.32 55.9219C728.315 65.0365 731.049 72.3281 733.523 77.7969C727.273 96.4818 721.935 114.19 717.508 130.922ZM669.461 65.3945C669.786 81.6706 670.372 94.1055 671.219 102.699C672.13 111.293 674.051 120.245 676.98 129.555C676.98 130.401 675.906 131.703 673.758 133.461C671.674 135.154 669.852 136 668.289 136H637.137C643.582 120.635 648.628 108.201 652.273 98.6953C655.919 89.125 658.816 80.1406 660.965 71.7422C660.965 70.8958 662.007 69.6263 664.09 67.9336C666.173 66.2409 667.964 65.3945 669.461 65.3945ZM926.254 132.094C913.559 134.828 899.919 136.195 885.336 136.195C882.016 131.703 880.355 126.983 880.355 122.035C880.355 117.087 881.82 104.555 884.75 84.4375C887.68 64.2552 889.177 50.8438 889.242 44.2031C889.242 43.3568 890.316 42.0872 892.465 40.3945C894.613 38.7018 896.404 37.8555 897.836 37.8555C911.768 37.8555 924.887 39.7109 937.191 43.4219C936.931 45.5052 935.206 53.806 932.016 68.3242C928.826 82.7773 927.23 94.3984 927.23 103.188C927.23 111.911 929.574 118.617 934.262 123.305C934.262 124.216 933.35 125.746 931.527 127.895C929.704 129.978 927.947 131.378 926.254 132.094ZM881.039 36.4883C873.292 42.2174 867.4 49.9974 863.363 59.8281C859.392 69.6589 857.406 79.3268 857.406 88.832C857.406 98.2721 858.448 106.768 860.531 114.32C862.68 121.807 865.544 126.82 869.125 129.359C869.125 130.336 868.083 131.703 866 133.461C863.917 135.154 862.126 136 860.629 136C845.72 136 833.741 132.257 824.691 124.77C815.707 117.283 811.215 107.061 811.215 94.1055C811.215 78.0247 817.302 64.5156 829.477 53.5781C835.336 48.3047 842.693 44.138 851.547 41.0781C860.466 38.0182 870.297 36.4883 881.039 36.4883ZM1049.55 36.4883C1056.97 36.4883 1060.68 41.1432 1060.68 50.4531C1060.68 56.2474 1059.67 62.0417 1057.66 67.8359C1055.64 73.5651 1053.1 77.9596 1050.04 81.0195C1045.74 78.0247 1040.44 75.5508 1034.12 73.5977C1027.87 71.5794 1021.88 70.4727 1016.15 70.2773C1016.67 66.6966 1017.71 62.888 1019.28 58.8516C1029.76 43.9427 1039.85 36.4883 1049.55 36.4883ZM991.055 136H950.137C956.777 107.615 961.465 77.5039 964.199 45.668C964.199 44.9518 965.241 43.7799 967.324 42.1523C969.473 40.5247 971.654 39.5156 973.867 39.125C976.146 38.7344 981.973 38.2135 991.348 37.5625C1000.79 36.8464 1008.01 36.4883 1013.03 36.4883C1006.58 68.7148 1002.09 99.737 999.551 129.555C999.551 130.401 998.509 131.703 996.426 133.461C994.342 135.154 992.552 136 991.055 136ZM1184.86 100.16L1184.18 114.613C1184.18 117.673 1184.83 119.919 1186.13 121.352C1187.5 122.719 1189.77 123.402 1192.96 123.402C1192.31 127.439 1191.24 130.759 1189.74 133.363C1180.5 136.098 1170.83 137.465 1160.74 137.465C1150.65 137.465 1144.14 136.391 1141.21 134.242C1138.34 132.029 1136.91 129.132 1136.91 125.551C1136.91 121.905 1137.33 117.185 1138.18 111.391C1139.09 105.596 1139.55 101.007 1139.55 97.6211C1139.55 91.6315 1136.16 88.0182 1129.39 86.7812C1129.98 83.5911 1131.08 81.0521 1132.71 79.1641C1138.96 77.276 1143.58 74.444 1146.58 70.668C1149.57 66.8919 1151.07 63.3112 1151.07 59.9258C1151.07 56.4753 1150.42 53.8385 1149.12 52.0156C1147.82 50.1276 1146.25 49.1836 1144.43 49.1836C1142.61 49.1836 1140.82 49.4766 1139.06 50.0625C1139.64 46.1562 1140.75 43.2266 1142.38 41.2734C1150.06 37.5625 1157.52 35.707 1164.74 35.707C1172.03 35.707 1177.8 37.3346 1182.03 40.5898C1186.26 43.8451 1188.38 48.0117 1188.38 53.0898C1188.38 58.1029 1187.24 62.3346 1184.96 65.7852C1182.74 69.1706 1179.78 71.9375 1176.07 74.0859C1168.78 78.4479 1160.41 81.0846 1150.97 81.9961C1162.04 81.9961 1170.44 83.5911 1176.17 86.7812C1181.96 89.9714 1184.86 94.431 1184.86 100.16ZM1116.5 129.359C1116.5 130.271 1115.46 131.605 1113.38 133.363C1111.29 135.121 1109.47 136 1107.91 136H1067.67C1070.54 123.76 1073.82 103.318 1077.54 74.6719C1081.31 46.026 1083.92 23.5651 1085.35 7.28906C1085.35 6.44271 1086.39 5.17318 1088.47 3.48047C1090.56 1.72266 1092.35 0.84375 1093.84 0.84375H1134.96C1131.51 15.1667 1127.93 35.8372 1124.21 62.8555C1120.5 89.8086 1117.93 111.977 1116.5 129.359ZM1297.12 38.9297C1305.98 41.9896 1312.68 46.2865 1317.24 51.8203C1321.86 57.2891 1324.17 63.1484 1324.17 69.3984C1324.17 77.9271 1320.49 85.1536 1313.14 91.0781C1305.78 97.0026 1295.75 99.9648 1283.06 99.9648C1279.09 99.9648 1274.73 99.3138 1269.97 98.0117C1276.87 93.7148 1281.53 88.1159 1283.94 81.2148C1286.02 75.2253 1287.06 68.194 1287.06 60.1211C1287.06 58.5586 1286.9 53.7734 1286.57 45.7656C1286.51 44.9193 1287.81 43.5846 1290.48 41.7617C1293.21 39.9388 1295.43 38.9948 1297.12 38.9297ZM1281.3 37.3672C1273.23 42.8359 1266.82 50.0299 1262.06 58.9492C1257.38 67.8685 1255.03 77.4062 1255.03 87.5625C1255.03 97.7188 1258.94 105.987 1266.75 112.367C1274.56 118.747 1285.96 121.938 1300.93 121.938C1305.03 121.938 1309.43 121.579 1314.11 120.863C1311.05 125.681 1305.16 129.717 1296.44 132.973C1287.71 136.163 1278.57 137.758 1269 137.758C1259.43 137.758 1251.26 136.814 1244.48 134.926C1237.71 132.973 1231.66 130.108 1226.32 126.332C1221.05 122.556 1216.88 117.641 1213.82 111.586C1210.76 105.466 1209.23 98.7604 1209.23 91.4688C1209.23 84.112 1210.37 77.4714 1212.65 71.5469C1214.93 65.6224 1218.05 60.5443 1222.02 56.3125C1225.99 52.0807 1230.62 48.4349 1235.89 45.375C1246.37 39.4505 1258.45 36.4883 1272.12 36.4883C1275.51 36.4883 1278.57 36.7812 1281.3 37.3672ZM1413.88 130.043C1400.53 134.34 1387.21 136.488 1373.93 136.488C1348.35 136.488 1335.55 126.299 1335.55 105.922C1335.55 101.495 1336.5 92.6732 1338.39 79.457C1340.27 66.1758 1341.22 57.0286 1341.22 52.0156C1341.22 46.9375 1340.99 43.0638 1340.54 40.3945C1349.45 36.4232 1357.3 31.931 1364.07 26.918C1370.84 21.9049 1377.42 15.7526 1383.8 8.46094C1387.05 7.48438 1391.28 6.99609 1396.49 6.99609C1392.13 22.3607 1388.65 38.1484 1386.04 54.3594C1383.5 70.5703 1382.23 82.5495 1382.23 90.2969C1382.23 97.9792 1382.79 103.546 1383.89 106.996C1385 110.382 1386.79 113.018 1389.27 114.906C1393.63 118.227 1400.53 119.887 1409.97 119.887C1412.25 119.887 1414.66 119.789 1417.2 119.594C1416.61 123.891 1415.5 127.374 1413.88 130.043ZM1396.79 62.1719C1397.37 53.1224 1398.84 44.724 1401.18 36.9766C1407.56 39.6458 1414.69 41.5339 1422.57 42.6406C1423.09 43.6172 1423.58 45.2448 1424.03 47.5234C1424.49 49.737 1424.71 51.4948 1424.71 52.7969C1415.67 55.2708 1406.36 58.3958 1396.79 62.1719Z" fill="url(#paint0_linear_2718_2549)"/>
<defs>
<linearGradient id="paint0_linear_2718_2549" x1="1426" y1="-50" x2="111.78" y2="420.503" gradientUnits="userSpaceOnUse">
<stop offset="0.0350221" stop-color="#73FF92"/>
<stop offset="0.218474" stop-color="#63A1FF"/>
<stop offset="0.84925" stop-color="#63A1FF"/>
<stop offset="0.99353" stop-color="#73FF92"/>
</linearGradient>
</defs>
</svg>
